<?xml version="1.0" encoding="utf-8"?>
<!-- Generator: Adobe Illustrator 21.1.0, SVG Export Plug-In . SVG Version: 6.00 Build 0)  -->
<svg version="1.1" id="Layer_1" xmlns="http://www.w3.org/2000/svg" xmlns:xlink="http://www.w3.org/1999/xlink" x="0px" y="0px"
	 viewBox="0 0 69 70" style="enable-background:new 0 0 69 70;" xml:space="preserve">
<style type="text/css">
	.st0{fill:#5592CE;}
</style>
<g>
	<path class="st0" d="M34,1C15.3,1,0,16.3,0,35c0,18.7,15.3,34,34,34s34-15.3,34-34C68,16.3,52.7,1,34,1z M34,65.2
		C17.4,65.2,3.8,51.6,3.8,35c0-10.6,5.5-19.9,13.8-25.3c0.1,1.1,1.7,1.8,1.2,3.1c-0.2,0.7-0.9,1.3-1.2,2c-0.3,0.7-0.2,1.5-0.5,2.2
		c-0.5,1.2-1.7,1.8-2.4,2.8c-0.7,1-0.8,2.2-0.8,3.4c0,1.4,1,2.5,1.4,3.8c0.6,1.5,0.9,3.1,1.1,4.7c0.5,3.4,5.1,3.7,7.2,5.5
		c1,0.8,1.5,2,2.4,2.8c0.5,0.4,1.9,1,1.8-0.2c0-0.8-0.6-1.5-1-2.1c-0.3-0.5-0.4-1.3-1-1.5c-0.4-0.2-0.9-0.1-1.3-0.4
		c-0.7-0.4-0.3-1.2-0.5-1.8c-0.6-1.6-3,0.7-3.9-1.1c-1-2,0.6-4.2,2.5-4.8c1-0.3,2-0.1,3,0.3c0.6,0.2,1.4,0.9,2,0.9
		c0.9-0.1,0.8-1.9,1.5-2.4c0.6-0.4,1.2-0.8,1.7-1.3c1.2-1.4,1.9-2.7,3.7-3.3c1.3-0.5,3.5-1.5,4.2-2.8c0.7-1.2-1.2-2.9-2-3.5
		c-0.7-0.5-1.6-0.9-2-1.6c-0.5-0.9,0.1-1.8,0.8-2.4c0.9-0.9,1.7,0.2,2.2,0.9c0.5,0.6,2.3,2,3,1.1c0.6-0.7-0.3-2.1,0-3
		c0.3-0.8,0.7-1.5,0-2.2c0,0-0.1-0.1-0.1-0.1c-0.4-0.4-1-0.6-1.5-1C38.6,7,38,6,37.4,5c2.6,0.3,5.1,0.9,7.4,1.8c0,0.2,0,0.3,0.1,0.5
		C45,7.7,45.4,8,45.7,8.2c0.8,0.5,1.4,1.2,2,1.8c1.3,1.3,3.5,1.3,4.2,3.1c0.3,0.8,0.2,1.9,0.8,2.6c0.5,0.6,1.2,0.9,1.1,1.8
		c-0.1,0.7-0.3,1.5,0.7,1.4c0.4,0,0.8-0.2,1-0.5c0.3-0.5,0-1.1,0-1.6c-0.1-1.6,1.7,0.1,2.5-0.1c0.8,1,1.5,2.1,2.1,3.2
		c-0.1,0.1-0.3,0.1-0.5,0.1c-0.4-0.1-0.7-0.5-1-0.7c-0.9-0.6-1.2,0.4-1.5,1.2c-0.3,0.8-0.9,1.5-1,2.3c-0.2,1.1,0.3,2.3,0.4,3.3
		c0.1,1.2,0,2.3,0.2,3.5c0.3,1.7,1,3.3,1.8,4.8c0.4,0.8,1,3.1,2.3,2.8c0.7-0.1,1-1,1.5-1.4c0.7-0.5,1.3-0.1,1.9,0.1
		C63.6,52.2,50.3,65.2,34,65.2z"/>
	<path class="st0" d="M49.7,45.3c-2.3-0.9-4.6-0.2-6.7-1.9c-2.3-2-4.3-3.6-7.4-4.3c-2.2-0.5-4.2-0.9-5.8,1c-1.5,1.8-2.5,4.4-2.3,6.7
		c0.2,2.6,2.6,4.8,4.6,6.3c0.8,0.6,1.1,1.5,1,2.5c-0.2,3.3-4,6.6-1.4,8c0.9,0.5,2.1-0.7,2.6-1.2c2.4-2.1,5.6-3,8.1-5
		c0.9-0.7,1.6-1.7,2.5-2.4c0.8-0.6,1.8-1,2.6-1.6c1-0.8,1-1.7,1.4-2.8c0.3-0.6,0.7-1,1.1-1.5C51.2,48,51.7,46.1,49.7,45.3z"/>
</g>
<g>
	<path class="st0" d="M-39.5,47.9c-1.5-0.9-3.4-0.4-4.3,1.2c-2.4,4.3-5.9,7.8-10.2,10.3c-4.3,2.4-9.1,3.8-14.1,3.8
		c-4.9,0-9.8-1.3-14.1-3.8c-4.3-2.5-7.8-6-10.3-10.3c-2.4-4.3-3.8-9.1-3.8-14.1s1.3-9.8,3.8-14.1l0,0c2.5-4.3,6-7.8,10.3-10.3
		c3.4-2,7.1-3.1,10.9-3.6v28v0.1c0,0.1,0,0.2,0,0.3c0,0.1,0,0.2,0.1,0.3c0,0.1,0.1,0.2,0.1,0.3c0,0.1,0.1,0.2,0.1,0.3
		c0.1,0.1,0.1,0.2,0.2,0.2s0.1,0.2,0.2,0.2c0.1,0.1,0.2,0.2,0.2,0.2c0.1,0.1,0.2,0.2,0.2,0.2c0.1,0.1,0.2,0.2,0.2,0.2
		c0.1,0.1,0.2,0.2,0.3,0.2l0.1,0.1l17,9.8c0.5,0.3,1,0.4,1.6,0.4c1.1,0,2.1-0.5,2.7-1.6c0.9-1.5,0.3-3.4-1.2-4.3L-65,33.2V3.7
		c0-1.7-1.4-3.1-3.1-3.1c-6,0-12,1.6-17.2,4.6c-5.2,3-9.5,7.3-12.6,12.6l0,0c-3,5.2-4.6,11.2-4.6,17.2s1.6,12,4.6,17.2
		c3,5.2,7.3,9.5,12.6,12.6c5.2,3,11.2,4.6,17.2,4.6c6,0,12-1.6,17.2-4.6c5.2-3,9.5-7.3,12.6-12.6C-37.5,50.7-37.9,48.8-39.5,47.9z
		 M-68.1,36.2c-0.6,0-1.2-0.5-1.2-1.2s0.5-1.2,1.2-1.2c0.6,0,1.2,0.5,1.2,1.2S-67.5,36.2-68.1,36.2z"/>
	<path class="st0" d="M-53.6,10c0.4,0.2,0.8,0.3,1.2,0.3c0.9,0,1.6-0.5,2-1.2c0.6-1.1,0.2-2.6-0.9-3.2c-0.4-0.2-0.8-0.3-1.2-0.3l0,0
		c-0.9,0-1.6,0.5-2,1.2C-55.1,7.9-54.7,9.3-53.6,10z"/>
	<path class="st0" d="M-41.1,21.7c0.4,0,0.8-0.1,1.2-0.3c0.5-0.3,0.9-0.8,1.1-1.4s0.1-1.3-0.2-1.8c-0.4-0.7-1.2-1.2-2-1.2l0,0
		c-0.4,0-0.8,0.1-1.2,0.3c-1.1,0.6-1.5,2.1-0.9,3.2C-42.6,21.2-41.8,21.7-41.1,21.7z"/>
	<circle class="st0" cx="-36.8" cy="35" r="2.3"/>
</g>
</svg>
